<?xml version="1.0" ?><svg xmlns="http://www.w3.org/2000/svg" viewBox="0 0 32 32"><defs><style>.cls-1{fill:#f95631;}</style></defs><g id="_6" data-name="6"><path class="cls-1" d="M24.88,7H8.12a2,2,0,0,1-.9-.21l-1-.5a2,2,0,0,1,0-3.58l1-.5A2,2,0,0,1,8.12,2H24.88a2,2,0,0,1,2,2V5A2,2,0,0,1,24.88,7Zm0-3H8.12l-1,.5,1,.5H24.88Z"/><path d="M28,30H4a2,2,0,0,1-2-2V11A2,2,0,0,1,4,9H28a2,2,0,0,1,2,2V28A2,2,0,0,1,28,30Zm0-19H4V28H28Z"/><path class="cls-1" d="M6,27a1,1,0,0,1-1-1V24a1,1,0,0,1,2,0v2A1,1,0,0,1,6,27Z"/><path class="cls-1" d="M6,22a1,1,0,0,1-1-1V18a1,1,0,0,1,2,0v3A1,1,0,0,1,6,22Z"/><path class="cls-1" d="M6,16a1,1,0,0,1-1-1V13a1,1,0,0,1,2,0v2A1,1,0,0,1,6,16Z"/><path d="M25,27H10a2,2,0,0,1-2-2V14a2,2,0,0,1,2-2H25a2,2,0,0,1,2,2V25A2,2,0,0,1,25,27ZM10,14V25H25V14Z"/><path class="cls-1" d="M23.87,22.61l-3.43-6.19s0,0-.05-.06l-.13-.15-.15-.13s0,0-.06,0l-.11,0a.6.6,0,0,0-.19-.06.58.58,0,0,0-.19,0,.55.55,0,0,0-.18,0,.66.66,0,0,0-.2.06.38.38,0,0,0-.1,0s0,0-.06,0a.93.93,0,0,0-.15.13.87.87,0,0,0-.13.15l0,.06-2,3.63-1.09-1.64a1,1,0,0,0-1.66,0l-2.75,4.13a1,1,0,1,0,1.66,1.11l1.92-2.88,1.92,2.88a1,1,0,0,0,.83.44,1,1,0,0,0,.83-1.55l-.41-.62,1.64-3,2.57,4.62a1,1,0,0,0,.87.51,1.07,1.07,0,0,0,.49-.12A1,1,0,0,0,23.87,22.61Z"/><path d="M16,17a1,1,0,0,1-1-1,1.05,1.05,0,0,1,.29-.71,1,1,0,0,1,1.09-.21,1,1,0,0,1,.33.21A1.05,1.05,0,0,1,17,16a1,1,0,0,1-1,1Z"/></g></svg>