<?xml version="1.0" encoding="utf-8"?>
<!-- Generator: Adobe Illustrator 27.5.0, SVG Export Plug-In . SVG Version: 6.00 Build 0)  -->
<svg version="1.1" xmlns="http://www.w3.org/2000/svg" xmlns:xlink="http://www.w3.org/1999/xlink" x="0px" y="0px"
	 viewBox="0 0 3710 3710" style="enable-background:new 0 0 3710 3710;" xml:space="preserve">
<g id="Illustration">
	<g>
		<linearGradient id="SVGID_1_" gradientUnits="userSpaceOnUse" x1="3376.9763" y1="3519.0173" x2="1384.4318" y2="1368.3341">
			<stop  offset="0" style="stop-color:#DAE3FE"/>
			<stop  offset="1" style="stop-color:#E9EFFD"/>
		</linearGradient>
		<path style="fill:url(#SVGID_1_);" d="M3099.302,2293.424c-273.79,639.952-996.508,914.827-1562.768,867.96
			c-154.612-12.796-465.695-38.543-708.592-268.242c-466.465-441.122-394.625-1363.19,51.916-1906.053
			c57.505-69.909,455.548-538.296,1075.824-532.026c454.132,4.59,772.883,261.124,811.642,293.083
			c48.963,40.373,156.955,136.312,254.282,288.513C3250.292,1394.278,3270.394,1893.517,3099.302,2293.424z"/>
		<g>
			<g>
				
					<linearGradient id="SVGID_00000107585194847086639600000009786533574284412055_" gradientUnits="userSpaceOnUse" x1="2376.5134" y1="-490.0008" x2="1182.0581" y2="1316.6104">
					<stop  offset="0" style="stop-color:#FF928E"/>
					<stop  offset="1" style="stop-color:#FE7062"/>
				</linearGradient>
				<path style="fill:url(#SVGID_00000107585194847086639600000009786533574284412055_);" d="M1505.341,1700.847H840.053
					c-20.646,0-38.186-15.102-41.253-35.518l-77.478-515.643c-1.835-12.212,7.623-23.197,19.972-23.197h764.048V1700.847z"/>
				<g>
					<path style="opacity:0.49;fill:#FFFFFF;" d="M1240.891,1456.75H868.62c-2.706,0-5.016-1.953-5.467-4.621l-12.946-76.637
						c-0.572-3.383,2.036-6.468,5.467-6.468h362.573c2.705,0,5.016,1.953,5.467,4.62l21.323,77.667
						C1245.789,1454.049,1243.729,1456.75,1240.891,1456.75z"/>
					<path style="opacity:0.49;fill:#FFFFFF;" d="M1265.593,1547.304c0.839,2.917-1.35,5.824-4.385,5.824H884
						c-2.238,0.014-4.155-1.598-4.525-3.805l-10.566-62.984c-0.466-2.78,1.677-5.313,4.496-5.313h368.441
						c2.773,0,5.212,1.836,5.978,4.501L1265.593,1547.304z"/>
					<path style="opacity:0.49;fill:#FFFFFF;" d="M1217.181,1346.311H852.065c-4.388,0-8.15-3.135-8.94-7.452l-9.391-51.279
						c-1.022-5.583,3.265-10.727,8.941-10.727h356.883c4.43,0,8.215,3.194,8.96,7.561l13.915,55.156
						C1223.296,1342.991,1220.709,1346.311,1217.181,1346.311z"/>
				</g>
			</g>
			<g>
				<path style="fill:#7D97F4;" d="M1747,2432.605h-665.288c-20.646,0-38.186-15.102-41.253-35.518l-77.478-515.643
					c-1.835-12.212,7.623-23.197,19.972-23.197H1747V2432.605z"/>
				<g>
					<path style="opacity:0.49;fill:#FFFFFF;" d="M1436.406,2188.365h-372.271c-2.706,0-5.016-1.953-5.467-4.621l-12.946-76.637
						c-0.571-3.383,2.036-6.468,5.467-6.468h362.573c2.705,0,5.016,1.953,5.467,4.621l21.323,77.667
						C1441.304,2185.664,1439.245,2188.365,1436.406,2188.365z"/>
					<path style="opacity:0.49;fill:#FFFFFF;" d="M1461.109,2278.919c0.839,2.917-1.35,5.824-4.385,5.824h-377.208
						c-2.238,0.014-4.155-1.598-4.525-3.805l-10.566-62.984c-0.466-2.781,1.677-5.313,4.496-5.313h368.441
						c2.773,0,5.212,1.836,5.978,4.501L1461.109,2278.919z"/>
					<path style="opacity:0.49;fill:#FFFFFF;" d="M1412.696,2077.925H1047.58c-4.388,0-8.15-3.135-8.941-7.452l-9.391-51.28
						c-1.022-5.583,3.265-10.726,8.94-10.726h356.883c4.43,0,8.215,3.194,8.96,7.561l13.915,55.156
						C1418.811,2074.605,1416.224,2077.925,1412.696,2077.925z"/>
				</g>
			</g>
			<g>
				
					<linearGradient id="SVGID_00000054946568050000370090000015977864353911071911_" gradientUnits="userSpaceOnUse" x1="1148.4646" y1="3838.4285" x2="1571.5021" y2="2867.9326">
					<stop  offset="0" style="stop-color:#4F52FF"/>
					<stop  offset="1" style="stop-color:#4042E2"/>
				</linearGradient>
				<path style="fill:url(#SVGID_00000054946568050000370090000015977864353911071911_);" d="M1953.288,3164.362h-656.469
					c-25.715,0-47.561-18.81-51.382-44.239l-74.243-494.113c-2.848-18.956,11.832-36.007,31.001-36.007h751.094V3164.362z"/>
				<g>
					<path style="opacity:0.49;fill:#FFFFFF;" d="M1652.502,2918.943h-372.271c-2.706,0-5.016-1.953-5.467-4.621l-12.946-76.637
						c-0.572-3.383,2.036-6.468,5.467-6.468h362.573c2.705,0,5.016,1.953,5.467,4.62l21.323,77.668
						C1657.4,2916.242,1655.34,2918.943,1652.502,2918.943z"/>
					<path style="opacity:0.49;fill:#FFFFFF;" d="M1677.204,3009.497c0.839,2.917-1.35,5.824-4.385,5.824h-377.208
						c-2.238,0.014-4.155-1.598-4.525-3.805l-10.566-62.984c-0.466-2.78,1.677-5.313,4.496-5.313h368.441
						c2.773,0,5.212,1.836,5.978,4.501L1677.204,3009.497z"/>
					<path style="opacity:0.49;fill:#FFFFFF;" d="M1628.792,2808.503h-365.116c-4.388,0-8.15-3.135-8.941-7.452l-9.391-51.28
						c-1.022-5.583,3.265-10.727,8.941-10.727h356.883c4.43,0,8.215,3.194,8.96,7.561l13.915,55.156
						C1634.907,2805.183,1632.32,2808.503,1628.792,2808.503z"/>
				</g>
			</g>
			<g>
				
					<linearGradient id="SVGID_00000105423682035202953210000015274007496683088529_" gradientUnits="userSpaceOnUse" x1="1706.4874" y1="3497.8323" x2="2089.7068" y2="2537.2952">
					<stop  offset="0" style="stop-color:#4F52FF"/>
					<stop  offset="1" style="stop-color:#4042E2"/>
				</linearGradient>
				<path style="fill:url(#SVGID_00000105423682035202953210000015274007496683088529_);" d="M2588.899,2546.24
					c0,16.352-224.887,48.31-505.556,48.31s-498.498-35.637-498.498-51.989c0-16.352,215.189-25.929,495.857-25.929
					C2361.372,2516.632,2588.899,2529.888,2588.899,2546.24z"/>
				<path style="fill:#7D97F4;" d="M2798.608,1815.366c0,20.656-352.491,71.647-748.552,71.647s-667.579-49.746-667.579-70.403
					s305.781-35.57,701.842-35.57S2798.608,1794.709,2798.608,1815.366z"/>
				<path style="fill:#91B3FA;" d="M2540.633,2459.67c-314.447,35.171-620.89,33.8-920.094-0.614
					c-37.621-4.327-69.087-30.563-79.929-66.847l-168.77-564.803c-1.955-6.542,4.061-12.635,10.636-10.795
					c226.084,63.271,1214.315,68.459,1409.166-0.931c4.028-1.434,7.966,2.286,6.736,6.381l-169.314,563.931
					C2617.035,2426.059,2582.209,2455.02,2540.633,2459.67z"/>
				
					<linearGradient id="SVGID_00000067210739351008963860000007158634433965518753_" gradientUnits="userSpaceOnUse" x1="1722.1958" y1="2399.6755" x2="2767.3374" y2="3439.842">
					<stop  offset="0" style="stop-color:#4F52FF"/>
					<stop  offset="1" style="stop-color:#4042E2"/>
				</linearGradient>
				<path style="fill:url(#SVGID_00000067210739351008963860000007158634433965518753_);" d="M2331.787,3191.034
					c-169.159,23.803-336.94,23.263-503.383-0.873c-37.31-5.41-68.175-31.804-78.969-67.927l-170.228-569.686
					c-1.659-5.551,3.034-10.904,8.755-9.989c318.503,50.941,699.71,48.351,987.831,0.74c7.479-1.236,13.649,5.828,11.469,13.087
					l-168.013,559.597C2407.256,3155.931,2373.088,3185.223,2331.787,3191.034z"/>
				
					<linearGradient id="SVGID_00000181767708619014858440000012876623042318895282_" gradientUnits="userSpaceOnUse" x1="2918.4609" y1="-278.2467" x2="1450.2832" y2="2120.6077">
					<stop  offset="0" style="stop-color:#E1473D"/>
					<stop  offset="1" style="stop-color:#E9605A"/>
				</linearGradient>
				<path style="fill:url(#SVGID_00000181767708619014858440000012876623042318895282_);" d="M2991.957,1082.853
					c0,24.1-399.332,43.637-906.561,43.637s-906.507-19.537-906.507-43.637c0-24.1,399.277-43.637,906.507-43.637
					S2991.957,1058.753,2991.957,1082.853z"/>
				<g>
					<path style="fill:#91B3FA;" d="M1552.95,1179.017c53.485,21.284,113.692,27.336,174.14,14.004
						c110.997-24.481,193.762-107.904,222.688-210.117l-286.877-80.913L1552.95,1179.017z"/>
					<path style="fill:#7D97F4;" d="M1949.778,982.904c12.961-45.799,15.123-95.367,4.154-145.102
						c-4.435-20.108-10.804-39.289-18.869-57.392L1662.901,901.99L1949.778,982.904z"/>
					<path style="fill:#91B3FA;" d="M1935.062,780.409c-27.973-62.792-76.351-112.598-135.162-143.081L1662.901,901.99
						L1935.062,780.409z"/>
					
						<linearGradient id="SVGID_00000173149278518583171410000007286531856133201827_" gradientUnits="userSpaceOnUse" x1="-550.7154" y1="320.6018" x2="-1115.9025" y2="-501.4893" gradientTransform="matrix(0.7633 0.6461 -0.6461 0.7633 2087.8491 1290.8951)">
						<stop  offset="0" style="stop-color:#4F52FF"/>
						<stop  offset="1" style="stop-color:#4042E2"/>
					</linearGradient>
					<path style="fill:url(#SVGID_00000173149278518583171410000007286531856133201827_);" d="M1637.502,907.593L1459.43,668.53
						c-91.058,67.909-139.013,185.122-112.958,303.252c22.118,100.283,92.348,177.527,181.079,212.838L1637.502,907.593z"/>
					<path style="fill:#7D97F4;" d="M1799.9,637.329c-26.333-13.648-54.755-23.42-84.38-28.745
						c-17.615,111.934-52.618,293.407-52.618,293.407L1799.9,637.329z"/>
					<path style="fill:#7D97F4;" d="M1715.519,608.584c-37.614-6.761-77.156-6.368-116.807,2.377
						c-42.601,9.396-81.044,27.477-113.883,51.967l178.072,239.063C1662.901,901.99,1697.904,720.518,1715.519,608.584z"/>
				</g>
				<g>
					
						<linearGradient id="SVGID_00000033360025459760178150000013099289380128745652_" gradientUnits="userSpaceOnUse" x1="2401.5505" y1="967.3153" x2="2489.4797" y2="1176.3549">
						<stop  offset="0" style="stop-color:#09005D"/>
						<stop  offset="1" style="stop-color:#1A0F91"/>
					</linearGradient>
					<path style="fill:url(#SVGID_00000033360025459760178150000013099289380128745652_);" d="M2345.874,959.456
						c0,0,70.753,186.599,93.107,225.417c25.948,45.06,101.73,16.347,97.959-21.364s-92.311-193.58-92.311-193.58L2345.874,959.456z
						"/>
					
						<linearGradient id="SVGID_00000162335072290585200550000009319804257312588690_" gradientUnits="userSpaceOnUse" x1="2408.0176" y1="70.949" x2="2577.2314" y2="588.5428">
						<stop  offset="0" style="stop-color:#4F52FF"/>
						<stop  offset="1" style="stop-color:#4042E2"/>
					</linearGradient>
					<polygon style="fill:url(#SVGID_00000162335072290585200550000009319804257312588690_);" points="2441.475,823.528 
						2881.232,671.057 2876.614,1083.668 2429.457,983.896 					"/>
					<ellipse style="fill:#7D97F4;" cx="2881.647" cy="878.56" rx="43.205" ry="212.044"/>
					
						<linearGradient id="SVGID_00000148632921824500723870000016344235044547136385_" gradientUnits="userSpaceOnUse" x1="3288.0215" y1="529.5303" x2="3013.7256" y2="766.2209">
						<stop  offset="0" style="stop-color:#4F52FF"/>
						<stop  offset="1" style="stop-color:#4042E2"/>
					</linearGradient>
					<path style="fill:url(#SVGID_00000148632921824500723870000016344235044547136385_);" d="M2884.926,1076.103
						c-3.905-3.972-12.412-19.292-19.704-58.909c-7.049-38.286-10.93-87.945-10.93-139.83c0-51.885,3.881-101.544,10.93-139.83
						c7.293-39.618,15.8-54.938,19.704-58.91c3.905,3.972,12.412,19.292,19.705,58.91c7.049,38.286,10.93,87.945,10.93,139.83
						c0,51.885-3.882,101.544-10.93,139.83C2897.338,1056.811,2888.831,1072.131,2884.926,1076.103z"/>
					<g>
						<defs>
							<path id="SVGID_00000173156863846849072470000005593470867631807127_" d="M2884.926,1076.103
								c-3.905-3.972-12.412-19.292-19.704-58.909c-7.049-38.286-10.93-87.945-10.93-139.83c0-51.885,3.881-101.544,10.93-139.83
								c7.293-39.618,15.8-54.938,19.704-58.91c3.905,3.972,12.412,19.292,19.705,58.91c7.049,38.286,62.668,87.945,62.668,139.83
								c0,51.885-55.619,101.544-62.668,139.83C2897.338,1056.811,2888.831,1072.131,2884.926,1076.103z"/>
						</defs>
						<clipPath id="SVGID_00000025438972618311310950000015346916505577549244_">
							<use xlink:href="#SVGID_00000173156863846849072470000005593470867631807127_"  style="overflow:visible;"/>
						</clipPath>
						
							<linearGradient id="SVGID_00000174603035288183503420000002251272592247480726_" gradientUnits="userSpaceOnUse" x1="2940.0103" y1="806.0034" x2="2807.2866" y2="958.6356">
							<stop  offset="0" style="stop-color:#09005D"/>
							<stop  offset="1" style="stop-color:#1A0F91"/>
						</linearGradient>
						
							<path style="clip-path:url(#SVGID_00000025438972618311310950000015346916505577549244_);fill:url(#SVGID_00000174603035288183503420000002251272592247480726_);" d="
							M2940.302,875.784c0,36.029-19.409,65.235-57.823,65.235c-38.414,0-69.555-29.207-69.555-65.235
							c0-36.028,31.141-65.235,69.555-65.235C2920.894,810.548,2940.302,839.755,2940.302,875.784z"/>
					</g>
					
						<linearGradient id="SVGID_00000041291992013819524960000001694361443669281202_" gradientUnits="userSpaceOnUse" x1="2334.7742" y1="788.2999" x2="2440.9531" y2="975.7717">
						<stop  offset="0" style="stop-color:#09005D"/>
						<stop  offset="1" style="stop-color:#1A0F91"/>
					</linearGradient>
					<path style="fill:url(#SVGID_00000041291992013819524960000001694361443669281202_);" d="M2370.549,814.659
						c20.687-2.402,50.351-3.267,82.426,4.078c-10.567,55.2-8.973,112.735,3.249,172.311l-90.465,0
						c-14.423,0-26.722-10.477-28.971-24.723c-4.509-28.557-10.021-76.555-4.143-115.104
						C2335.592,831.875,2351.109,816.916,2370.549,814.659z"/>
					<path style="fill:#91B3FA;" d="M2424.841,856.935h-70.483c-2.392,0-4.503-1.254-5.647-3.356
						c-1.143-2.102-1.05-4.556,0.25-6.564c0.544-0.84,1.666-1.076,2.506-0.537c0.84,0.544,1.081,1.666,0.537,2.507
						c-0.566,0.875-0.607,1.945-0.109,2.861c0.499,0.916,1.419,1.463,2.463,1.463h70.483c1.546,0,2.803-1.257,2.803-2.802v-5.016
						c0-1.546-1.257-2.802-2.803-2.802h-71.006c-1.001,0-1.813-0.812-1.813-1.812c0-1.001,0.811-1.812,1.813-1.812h71.006
						c3.544,0,6.428,2.884,6.428,6.427v5.016C2431.269,854.052,2428.386,856.935,2424.841,856.935z"/>
					<path style="fill:#91B3FA;" d="M2418.556,888.151h-70.483c-2.392,0-4.503-1.254-5.646-3.356
						c-1.143-2.102-1.05-4.556,0.25-6.564c0.544-0.839,1.667-1.076,2.506-0.537c0.84,0.544,1.081,1.666,0.537,2.507
						c-0.566,0.875-0.607,1.945-0.109,2.861c0.499,0.916,1.42,1.463,2.463,1.463h70.483c1.546,0,2.803-1.257,2.803-2.802v-5.015
						c0-1.546-1.257-2.804-2.803-2.804h-71.006c-1.001,0-1.812-0.812-1.812-1.812c0-1.001,0.811-1.812,1.812-1.812h71.006
						c3.545,0,6.428,2.884,6.428,6.428v5.015C2424.984,885.267,2422.101,888.151,2418.556,888.151z"/>
					<path style="fill:#91B3FA;" d="M2505.374,812.36c-0.768,0-1.481-0.492-1.726-1.263c-0.304-0.955,0.224-1.973,1.177-2.277
						l333.067-105.988c0.953-0.303,1.973,0.224,2.277,1.178c0.304,0.955-0.224,1.973-1.177,2.277l-333.067,105.988
						C2505.742,812.333,2505.556,812.36,2505.374,812.36z"/>
					<path style="fill:#91B3FA;" d="M2460.334,830.772c-0.714,0-1.391-0.425-1.678-1.127c-0.379-0.926,0.065-1.985,0.992-2.363
						l17.142-7.006c0.926-0.381,1.985,0.066,2.364,0.992c0.379,0.926-0.065,1.985-0.992,2.364l-17.142,7.006
						C2460.795,830.73,2460.563,830.772,2460.334,830.772z"/>
					<path style="fill:#91B3FA;" d="M2424.841,924.71h-70.483c-2.392,0-4.503-1.254-5.646-3.356s-1.05-4.556,0.25-6.564
						c0.544-0.841,1.666-1.078,2.506-0.538c0.84,0.544,1.081,1.666,0.537,2.506c-0.567,0.877-0.608,1.947-0.108,2.864
						c0.498,0.916,1.419,1.463,2.462,1.463h70.483c1.546,0,2.803-1.258,2.803-2.803v-5.015c0-1.546-1.257-2.802-2.803-2.802h-71.006
						c-1.001,0-1.813-0.812-1.813-1.812c0-1.001,0.811-1.812,1.813-1.812h71.006c3.544,0,6.428,2.884,6.428,6.427v5.015
						C2431.269,921.826,2428.386,924.71,2424.841,924.71z"/>
					<path style="fill:#91B3FA;" d="M2431.441,965.288h-70.483c-2.392,0-4.503-1.254-5.646-3.356
						c-1.143-2.101-1.05-4.556,0.25-6.564c0.545-0.841,1.667-1.078,2.506-0.538c0.84,0.544,1.081,1.666,0.537,2.506
						c-0.567,0.877-0.608,1.947-0.108,2.864c0.499,0.916,1.419,1.463,2.462,1.463h70.483c1.546,0,2.803-1.257,2.803-2.802v-5.016
						c0-1.546-1.257-2.802-2.803-2.802h-71.006c-1.001,0-1.812-0.812-1.812-1.812c0-1.001,0.811-1.812,1.812-1.812h71.006
						c3.545,0,6.428,2.884,6.428,6.427v5.016C2437.868,962.404,2434.985,965.288,2431.441,965.288z"/>
					<path style="fill:#91B3FA;" d="M2494.391,1185.914c-3.248,0-6.53-0.35-9.805-1.064c-14.33-3.122-25.996-12.571-32.007-25.925
						l-56.312-125.104c-0.411-0.912-0.004-1.985,0.908-2.396c0.913-0.412,1.986-0.002,2.397,0.91l56.312,125.103
						c5.535,12.294,16.277,20.995,29.473,23.869c12.969,2.828,26.093-0.529,36.008-9.206c0.532-0.465,1.065-0.943,1.602-1.432
						c0.739-0.675,1.885-0.624,2.561,0.116c0.675,0.739,0.624,1.885-0.116,2.56c-0.556,0.509-1.109,1.003-1.66,1.484
						C2515.469,1182.076,2505.129,1185.914,2494.391,1185.914z"/>
					<path style="fill:#91B3FA;" d="M2389.594,1016.392c-0.692,0-1.352-0.398-1.654-1.068l-6.282-13.957
						c-0.411-0.912-0.004-1.985,0.908-2.396c0.912-0.411,1.986-0.002,2.396,0.909l6.282,13.955c0.411,0.913,0.004,1.986-0.909,2.398
						C2390.096,1016.341,2389.843,1016.392,2389.594,1016.392z"/>
					<path style="fill:#91B3FA;" d="M2930.006,873.906c-0.943,0-1.738-0.729-1.806-1.684c-1.252-17.653-7.371-30.814-18.186-39.118
						c-18.702-14.359-45.389-9.424-45.656-9.371c-0.988,0.188-1.933-0.453-2.122-1.436c-0.19-0.983,0.454-1.934,1.437-2.123
						c1.156-0.223,28.568-5.285,48.55,10.054c11.673,8.962,18.265,23.004,19.594,41.736c0.071,0.998-0.681,1.866-1.679,1.936
						C2930.092,873.904,2930.049,873.906,2930.006,873.906z"/>
				</g>
				<g>
					<path style="fill:#7D97F4;" d="M2198.424,1006.56c0.664-3.121-1.661-6.689-6.302-10.379c6.673-1.448,10.853-3.888,11.577-7.289
						c2.191-10.291-27.951-25.428-67.323-33.809c-39.372-8.381-73.066-6.833-75.256,3.458c-0.665,3.122,1.661,6.689,6.301,10.379
						c-6.673,1.448-10.854,3.888-11.578,7.289c-0.665,3.121,1.661,6.689,6.302,10.379c-6.673,1.448-10.854,3.888-11.577,7.289
						c-0.665,3.121,1.661,6.689,6.301,10.379c-6.673,1.449-10.853,3.888-11.577,7.289c-0.969,4.551,4.395,10.05,14.076,15.494
						c-1.115,3.244-2.115,6.866-2.979,10.937c-4.026,18.966,12.467,39.705,40.015,47.932c27.549,8.227,57.304-4.449,63.122-22.944
						c1.426-4.532,2.428-8.598,3.08-12.282c14.496-0.465,24.129-3.445,25.266-8.786c0.664-3.121-1.661-6.689-6.302-10.379
						c6.673-1.449,10.853-3.888,11.577-7.289c0.665-3.121-1.661-6.69-6.302-10.379C2193.52,1012.4,2197.7,1009.961,2198.424,1006.56
						z"/>
					<g>
						<path style="fill:#91B3FA;" d="M2091.359,1040.947c-11.418-3.41-21.615-7.37-29.754-11.601
							c-0.472-0.245-0.656-0.827-0.411-1.3c0.245-0.472,0.825-0.657,1.3-0.41c12.735,6.62,30.606,12.577,50.322,16.774
							c16.133,3.434,31.624,5.293,44.799,5.375c0.534,0.004,0.961,0.437,0.958,0.969c-0.003,0.532-0.437,0.961-0.969,0.958
							c-13.304-0.083-28.929-1.956-45.188-5.417C2105.092,1044.737,2098.018,1042.935,2091.359,1040.947z"/>
						<path style="fill:#91B3FA;" d="M2096.832,1023.32c-14.835-4.43-27.676-9.784-36.233-15.24
							c-0.449-0.286-0.58-0.882-0.295-1.331c0.287-0.449,0.88-0.581,1.331-0.295c12.193,7.774,33.298,15.357,56.457,20.288
							c22.908,4.877,45.127,6.568,59.435,4.523c0.527-0.074,1.015,0.291,1.091,0.818c0.075,0.527-0.291,1.015-0.818,1.091
							c-14.52,2.074-36.991,0.375-60.109-4.546C2110.477,1027.092,2103.455,1025.298,2096.832,1023.32z"/>
						<path style="fill:#91B3FA;" d="M2101.914,1005.609c-16.018-4.783-29.546-10.608-38.051-16.536
							c-0.437-0.304-0.544-0.905-0.24-1.342c0.304-0.437,0.903-0.545,1.342-0.24c11.836,8.25,33.67,16.318,58.404,21.584
							c22.907,4.877,45.126,6.567,59.435,4.522c0.527-0.074,1.015,0.292,1.091,0.818c0.075,0.527-0.291,1.015-0.818,1.091
							c-14.521,2.074-36.992,0.375-60.109-4.546C2115.641,1009.401,2108.563,1007.594,2101.914,1005.609z"/>
						<path style="fill:#91B3FA;" d="M2107.316,987.97c-12.706-3.794-23.956-8.273-32.344-12.952
							c-0.465-0.259-0.631-0.846-0.372-1.311c0.26-0.465,0.848-0.632,1.311-0.372c12.614,7.036,31.835,13.623,52.734,18.072
							c22.703,4.833,44.801,6.541,59.111,4.568c0.527-0.074,1.013,0.296,1.086,0.823c0.073,0.527-0.296,1.013-0.823,1.086
							c-14.519,2.001-36.865,0.284-59.774-4.593C2121.004,991.752,2113.96,989.954,2107.316,987.97z"/>
					</g>
					
						<linearGradient id="SVGID_00000044153962003454820440000000084373288522407063_" gradientUnits="userSpaceOnUse" x1="1981.5293" y1="1015.3419" x2="2339.8821" y2="515.4177">
						<stop  offset="0" style="stop-color:#FF928E"/>
						<stop  offset="1" style="stop-color:#FE7062"/>
					</linearGradient>
					<path style="fill:url(#SVGID_00000044153962003454820440000000084373288522407063_);" d="M2060.024,868.093
						c0.269-17.934-3.046-35.758-9.708-52.411c-14.274-35.681-34.094-105.495-14.78-186.933
						c28.093-118.456,148.791-145.918,240.677-109.857c91.886,36.061,163.931,134.01,121.396,239.312
						c-26.172,64.793-78.584,104.215-115.037,124.958c-23.147,13.172-42.476,32-56.632,54.559
						c-17.326,27.612-48.369,59.199-96.211,47.403C2067.822,969.861,2059.464,905.413,2060.024,868.093z"/>
					
						<linearGradient id="SVGID_00000101076492933665102490000005096545713465443995_" gradientUnits="userSpaceOnUse" x1="295.0187" y1="2573.6343" x2="540.5603" y2="2117.9438" gradientTransform="matrix(0.9582 0.2861 -0.2861 0.9582 904.9236 68.4645)">
						<stop  offset="0" style="stop-color:#E1473D"/>
						<stop  offset="1" style="stop-color:#E9605A"/>
					</linearGradient>
					<path style="fill:url(#SVGID_00000101076492933665102490000005096545713465443995_);" d="M2152.251,966.556l97.031-204.644
						c2.004-4.228,5.073-6.552,6.855-5.192c1.782,1.36,1.601,5.89-0.403,10.118c-0.054,0.113-0.121,0.251-0.177,0.361
						L2154.536,968.48c-0.76,1.514-1.873,2.281-2.486,1.713C2151.456,969.643,2151.552,968.032,2152.251,966.556z"/>
					
						<linearGradient id="SVGID_00000078020569743916616200000015350562982368341422_" gradientUnits="userSpaceOnUse" x1="237.1323" y1="2542.4924" x2="482.6782" y2="2086.7939" gradientTransform="matrix(0.9582 0.2861 -0.2861 0.9582 904.9236 68.4645)">
						<stop  offset="0" style="stop-color:#E1473D"/>
						<stop  offset="1" style="stop-color:#E9605A"/>
					</linearGradient>
					<path style="fill:url(#SVGID_00000078020569743916616200000015350562982368341422_);" d="M2117.51,958.036l31.075-224.34
						c0.642-4.634-0.65-8.262-2.886-8.101c-2.236,0.161-4.569,4.048-5.211,8.683c-0.017,0.123-0.036,0.277-0.05,0.398
						l-25.894,223.717c-0.195,1.682,0.316,2.934,1.14,2.796C2116.483,961.054,2117.285,959.654,2117.51,958.036z"/>
					<path style="opacity:0.49;fill:#FFFFFF;" d="M2254.545,743.425c-0.435-1.597-2.223-2.679-3.993-2.417l-20.925,3.096
						l-0.95-20.065c-0.054-1.048-0.585-2.122-1.562-2.914c-1.852-1.501-4.611-1.477-6.162,0.054l-0.05,0.049l-23.324,23.025
						l-2.308-43.382l-0.004-0.072c-0.058-1.059-0.524-2.135-1.407-3.025c-1.967-1.985-5.254-2.3-7.342-0.705l-29.791,22.759
						c-1.214,0.935-1.396,2.619-0.352,3.89c1.115,1.357,3.19,1.739,4.635,0.853l24.781-15.185l5.601,42.285l0.004,0.032
						c0.09,0.677,0.44,1.348,1.043,1.885c1.351,1.204,3.463,1.283,4.718,0.175l23.891-21.094l2.164,14.924l0.019,0.133
						c0.016,0.107,0.038,0.215,0.068,0.324c0.435,1.595,2.221,2.676,3.99,2.415l24.838-3.676
						C2253.898,746.528,2254.981,745.022,2254.545,743.425z"/>
					<path style="opacity:0.49;fill:#FFFFFF;" d="M2291.031,857.449c-1.225-0.366-2.347-1.113-3.17-2.214
						c-2.039-2.727-1.482-6.591,1.245-8.632c7.822-5.849,15.25-12.085,22.081-18.536c2.475-2.338,6.376-2.227,8.716,0.248
						c2.34,2.475,2.229,6.378-0.248,8.716c-7.173,6.776-14.965,13.319-23.162,19.449
						C2294.866,857.695,2292.837,857.988,2291.031,857.449z"/>
					<path style="opacity:0.49;fill:#FFFFFF;" d="M2332.065,818.992c-0.785-0.234-1.536-0.63-2.204-1.192
						c-2.604-2.194-2.938-6.083-0.744-8.69c58.301-69.24,48.469-144.782,48.362-145.539c-0.474-3.372,1.875-6.489,5.249-6.965
						c3.378-0.468,6.493,1.878,6.965,5.249c0.463,3.304,10.669,81.789-51.141,155.198
						C2336.919,818.992,2334.348,819.674,2332.065,818.992z"/>
				</g>
				<g>
					<circle style="fill:#91B3FA;" cx="2511.475" cy="621.379" r="143.87"/>
					<g>
						<path style="fill:#FFFFFF;" d="M2511.475,711.601c-49.749,0-90.223-40.474-90.223-90.223s40.474-90.223,90.223-90.223
							c49.749,0,90.223,40.474,90.223,90.223S2561.224,711.601,2511.475,711.601z M2511.475,546.275
							c-41.412,0-75.104,33.691-75.104,75.103s33.691,75.103,75.104,75.103c41.412,0,75.103-33.691,75.103-75.103
							S2552.887,546.275,2511.475,546.275z"/>
						<path style="fill-rule:evenodd;clip-rule:evenodd;fill:#FFFFFF;" d="M2483.211,656.124V591.26
							c0-6.931,7.544-11.227,13.505-7.69l54.656,32.432c5.838,3.464,5.838,11.915,0,15.379l-54.656,32.432
							C2490.756,667.351,2483.211,663.055,2483.211,656.124z"/>
					</g>
				</g>
				<g>
					<circle style="fill:#91B3FA;" cx="1143.921" cy="838.65" r="151.183"/>
					<g>
						<path style="fill:#FFFFFF;" d="M1143.921,944.271c-8.977,0-17.112-4.585-21.761-12.267
							c-26.174-43.242-57.374-100.197-57.374-125.956c0-40.264,35.5-73.021,79.135-73.021c43.636,0,79.135,32.757,79.135,73.021
							c0,25.759-31.2,82.714-57.374,125.956C1161.033,939.686,1152.898,944.271,1143.921,944.271z M1143.921,743.217
							c-38.017,0-68.946,28.186-68.946,62.832c0,18,20.375,61.986,55.902,120.68c2.787,4.605,7.664,7.353,13.045,7.353
							c5.381,0,10.258-2.748,13.045-7.353c35.526-58.694,55.902-102.68,55.902-120.68
							C1212.868,771.403,1181.938,743.217,1143.921,743.217z"/>
						<path style="fill:#FFFFFF;" d="M1137.792,857.044c-27.061,0-49.077-22.016-49.077-49.078c0-2.814,2.28-5.095,5.095-5.095
							c2.814,0,5.094,2.281,5.094,5.095c0,21.443,17.445,38.889,38.888,38.889c21.443,0,38.889-17.446,38.889-38.889
							c0-21.443-17.446-38.889-38.889-38.889c-12.399,0-23.769,5.709-31.193,15.662c-1.683,2.256-4.875,2.721-7.129,1.038
							c-2.256-1.683-2.721-4.875-1.038-7.129c9.229-12.373,23.942-19.759,39.36-19.759c27.062,0,49.078,22.016,49.078,49.078
							C1186.87,835.028,1164.854,857.044,1137.792,857.044z"/>
					</g>
				</g>
				
					<linearGradient id="SVGID_00000032617267753704960540000015344541944636846237_" gradientUnits="userSpaceOnUse" x1="2075.1335" y1="1064.7267" x2="2353.8806" y2="2020.4314">
					<stop  offset="0" style="stop-color:#FF928E"/>
					<stop  offset="0.6008" style="stop-color:#FE7E74"/>
					<stop  offset="1" style="stop-color:#FE7062"/>
				</linearGradient>
				<path style="fill:url(#SVGID_00000032617267753704960540000015344541944636846237_);" d="M2706.179,1727.381
					c-416.328,27.116-841.043,25.272-1273.251-2.43c-49.832-3.194-92.244-37.479-105.967-85.49l-154.777-541.498
					c-2.503-8.758,4.589-17.264,13.655-16.392c588.159,56.567,1188.064,55.077,1799.015-0.105
					c9.12-0.824,16.219,7.758,13.677,16.555l-148.476,513.635C2831.258,1676.683,2773.725,1722.982,2706.179,1727.381z"/>
			</g>
		</g>
		<g>
			<g>
				
					<linearGradient id="SVGID_00000009564117934394678450000000015266711610583169_" gradientUnits="userSpaceOnUse" x1="2221.4978" y1="2830.9902" x2="2503.4968" y2="2503.6704">
					<stop  offset="0" style="stop-color:#E1473D"/>
					<stop  offset="1" style="stop-color:#E9605A"/>
				</linearGradient>
				
					<circle style="fill:url(#SVGID_00000009564117934394678450000000015266711610583169_);" cx="2509.193" cy="2497.059" r="210.241"/>
				
					<linearGradient id="SVGID_00000116916804527457897700000010300161116432780673_" gradientUnits="userSpaceOnUse" x1="2662.8447" y1="2264.9351" x2="1828.9662" y2="3524.6877">
					<stop  offset="0" style="stop-color:#FF928E"/>
					<stop  offset="1" style="stop-color:#FE7062"/>
				</linearGradient>
				
					<circle style="fill:url(#SVGID_00000116916804527457897700000010300161116432780673_);" cx="2509.193" cy="2497.059" r="203.25"/>
				<path style="opacity:0.49;fill:#FFFFFF;" d="M2341.592,2417.291c-0.706,0-1.423-0.159-2.097-0.501
					c-2.3-1.159-3.222-3.964-2.061-6.263c32.927-65.232,98.739-105.754,171.758-105.754c11.65,0,23.321,1.05,34.685,3.121
					c2.534,0.462,4.214,2.892,3.752,5.423c-0.46,2.536-2.896,4.196-5.423,3.752c-10.815-1.972-21.921-2.971-33.013-2.971
					c-69.478,0-132.101,38.56-163.434,100.631C2344.939,2416.355,2343.297,2417.291,2341.592,2417.291z"/>
				
					<ellipse transform="matrix(0.7071 -0.7071 0.7071 0.7071 -1032.5958 2510.0674)" style="opacity:0.78;fill:#FFFFFF;" cx="2513.622" cy="2501.487" rx="172.026" ry="172.026"/>
				<g>
					
						<linearGradient id="SVGID_00000085217546071603947320000016248702972417248642_" gradientUnits="userSpaceOnUse" x1="2566.4309" y1="2277.2021" x2="2480.1606" y2="2662.0994">
						<stop  offset="0" style="stop-color:#FF928E"/>
						<stop  offset="1" style="stop-color:#FE7062"/>
					</linearGradient>
					<path style="fill:url(#SVGID_00000085217546071603947320000016248702972417248642_);" d="M2496.74,2629.374v-18.715
						c-19.511-0.781-38.808-5.386-52.515-11.385c-4.894-2.143-7.389-7.635-5.983-12.79l4.755-17.433
						c1.744-6.395,8.699-9.703,14.813-7.141c13.596,5.7,30.384,10.209,48.486,10.209c18.792,0,32.806-6.371,32.806-19.43
						c0-11.784-10.829-18.791-36.947-25.798c-37.264-10.192-64.021-26.437-64.021-59.243c0-29.623,21.66-52.236,59.243-58.287
						v-18.718c0-6.022,4.883-10.905,10.905-10.905h10.996c6.022,0,10.905,4.882,10.905,10.905v16.805
						c18.053,0.723,31.195,3.81,41.624,7.475c5.343,1.877,8.263,7.634,6.781,13.1l-4.372,16.123
						c-1.686,6.217-8.331,9.623-14.356,7.344c-9.602-3.631-23.177-7.412-40.824-7.412c-22.296,0-28.665,9.236-28.665,17.517
						c0,10.193,13.377,17.199,42.361,26.118c41.407,12.421,58.605,29.62,58.605,60.516c0,28.347-21.021,53.828-61.79,60.199v20.945
						c0,6.022-4.883,10.905-10.905,10.905h-10.997C2501.622,2640.279,2496.74,2635.396,2496.74,2629.374z"/>
				</g>
			</g>
			
				<linearGradient id="SVGID_00000132067576274121664560000010048351734881549213_" gradientUnits="userSpaceOnUse" x1="2085.9314" y1="3392.0137" x2="2625.4229" y2="2638.7627">
				<stop  offset="0" style="stop-color:#FF928E"/>
				<stop  offset="1" style="stop-color:#FE7062"/>
			</linearGradient>
			<path style="fill:url(#SVGID_00000132067576274121664560000010048351734881549213_);" d="M2711.537,2840.28h-404.688
				c-2.007,0-3.634-1.627-3.634-3.634v-71.2c0-2.007,1.627-3.634,3.634-3.634h404.688c2.007,0,3.634,1.627,3.634,3.634v71.2
				C2715.17,2838.653,2713.544,2840.28,2711.537,2840.28z"/>
			
				<linearGradient id="SVGID_00000118370148168192650330000007793480681772362115_" gradientUnits="userSpaceOnUse" x1="2131.2515" y1="3422.3682" x2="2670.7427" y2="2669.1177">
				<stop  offset="0" style="stop-color:#FF928E"/>
				<stop  offset="1" style="stop-color:#FE7062"/>
			</linearGradient>
			<path style="fill:url(#SVGID_00000118370148168192650330000007793480681772362115_);" d="M2711.86,2933.46h-404.687
				c-2.007,0-3.634-1.627-3.634-3.634v-71.2c0-2.007,1.627-3.634,3.634-3.634h404.687c2.007,0,3.634,1.627,3.634,3.634v71.2
				C2715.493,2931.833,2713.867,2933.46,2711.86,2933.46z"/>
			
				<linearGradient id="SVGID_00000162323506867533339920000009073572421687021229_" gradientUnits="userSpaceOnUse" x1="2176.5718" y1="3452.7231" x2="2716.0627" y2="2699.4729">
				<stop  offset="0" style="stop-color:#FF928E"/>
				<stop  offset="1" style="stop-color:#FE7062"/>
			</linearGradient>
			<path style="fill:url(#SVGID_00000162323506867533339920000009073572421687021229_);" d="M2712.183,3026.64h-404.687
				c-2.007,0-3.634-1.627-3.634-3.634v-71.2c0-2.007,1.627-3.634,3.634-3.634h404.687c2.007,0,3.634,1.627,3.634,3.634v71.2
				C2715.817,3025.013,2714.19,3026.64,2712.183,3026.64z"/>
			
				<linearGradient id="SVGID_00000145031977903090230930000000415408160087359676_" gradientUnits="userSpaceOnUse" x1="2221.8914" y1="3483.0784" x2="2761.3831" y2="2729.8274">
				<stop  offset="0" style="stop-color:#FF928E"/>
				<stop  offset="1" style="stop-color:#FE7062"/>
			</linearGradient>
			<path style="fill:url(#SVGID_00000145031977903090230930000000415408160087359676_);" d="M2712.507,3119.82h-404.688
				c-2.007,0-3.634-1.627-3.634-3.634v-71.2c0-2.007,1.627-3.634,3.634-3.634h404.688c2.007,0,3.634,1.627,3.634,3.634v71.2
				C2716.141,3118.194,2714.514,3119.82,2712.507,3119.82z"/>
			
				<linearGradient id="SVGID_00000153665979816170981180000000291984204707790221_" gradientUnits="userSpaceOnUse" x1="2267.2112" y1="3513.4336" x2="2806.7024" y2="2760.1833">
				<stop  offset="0" style="stop-color:#FF928E"/>
				<stop  offset="1" style="stop-color:#FE7062"/>
			</linearGradient>
			<path style="fill:url(#SVGID_00000153665979816170981180000000291984204707790221_);" d="M2712.83,3213h-404.687
				c-2.007,0-3.634-1.627-3.634-3.634v-71.2c0-2.007,1.627-3.634,3.634-3.634h404.687c2.007,0,3.634,1.627,3.634,3.634v71.2
				C2716.464,3211.374,2714.837,3213,2712.83,3213z"/>
		</g>
		<g>
			<g>
				
					<linearGradient id="SVGID_00000040568951203033843840000016356596028001246363_" gradientUnits="userSpaceOnUse" x1="2681.7751" y1="2924.9727" x2="2963.7742" y2="2597.6528">
					<stop  offset="0" style="stop-color:#E1473D"/>
					<stop  offset="1" style="stop-color:#E9605A"/>
				</linearGradient>
				
					<circle style="fill:url(#SVGID_00000040568951203033843840000016356596028001246363_);" cx="2969.47" cy="2591.041" r="210.241"/>
				
					<linearGradient id="SVGID_00000048471674588578492050000000396782954185777570_" gradientUnits="userSpaceOnUse" x1="3123.1221" y1="2358.9175" x2="2289.2437" y2="3618.6699">
					<stop  offset="0" style="stop-color:#FF928E"/>
					<stop  offset="1" style="stop-color:#FE7062"/>
				</linearGradient>
				
					<circle style="fill:url(#SVGID_00000048471674588578492050000000396782954185777570_);" cx="2969.47" cy="2591.041" r="203.25"/>
				<path style="opacity:0.49;fill:#FFFFFF;" d="M2801.869,2511.272c-0.706,0-1.423-0.159-2.097-0.501
					c-2.3-1.159-3.222-3.964-2.061-6.263c32.924-65.23,98.739-105.752,171.758-105.752c11.659,0,23.33,1.05,34.685,3.119
					c2.534,0.462,4.214,2.892,3.752,5.423c-0.462,2.536-2.891,4.214-5.423,3.752c-10.806-1.969-21.914-2.969-33.013-2.969
					c-69.478,0-132.103,38.559-163.434,100.629C2805.216,2510.337,2803.574,2511.272,2801.869,2511.272z"/>
				
					<ellipse transform="matrix(0.7071 -0.7071 0.7071 0.7071 -964.2394 2863.0593)" style="opacity:0.78;fill:#FFFFFF;" cx="2973.899" cy="2595.469" rx="172.026" ry="172.026"/>
				<g>
					
						<linearGradient id="SVGID_00000061473282813067305720000012977644199759440540_" gradientUnits="userSpaceOnUse" x1="3000.3665" y1="2415.0283" x2="2958.3376" y2="2724.7156">
						<stop  offset="0" style="stop-color:#FF928E"/>
						<stop  offset="1" style="stop-color:#FE7062"/>
					</linearGradient>
					<path style="fill:url(#SVGID_00000061473282813067305720000012977644199759440540_);" d="M2957.017,2723.356v-18.715
						c-19.51-0.781-38.808-5.386-52.514-11.386c-4.895-2.143-7.389-7.635-5.983-12.79l4.754-17.433
						c1.744-6.395,8.699-9.703,14.813-7.141c13.596,5.699,30.384,10.209,48.486,10.209c18.792,0,32.806-6.371,32.806-19.43
						c0-11.784-10.828-18.791-36.947-25.797c-37.265-10.192-64.021-26.437-64.021-59.243c0-29.623,21.66-52.236,59.243-58.287
						v-18.718c0-6.022,4.882-10.905,10.905-10.905h10.996c6.022,0,10.905,4.882,10.905,10.905v16.805
						c18.053,0.722,31.195,3.81,41.624,7.475c5.343,1.877,8.263,7.634,6.781,13.1l-4.372,16.123
						c-1.686,6.217-8.331,9.623-14.356,7.344c-9.602-3.631-23.177-7.412-40.824-7.412c-22.296,0-28.666,9.236-28.666,17.517
						c0,10.193,13.377,17.199,42.361,26.118c41.407,12.421,58.605,29.62,58.605,60.516c0,28.347-21.021,53.828-61.79,60.199v20.945
						c0,6.022-4.882,10.905-10.905,10.905h-10.997C2961.9,2734.261,2957.017,2729.378,2957.017,2723.356z"/>
				</g>
			</g>
			
				<linearGradient id="SVGID_00000089557369645578548240000013493249305784392581_" gradientUnits="userSpaceOnUse" x1="3132.4373" y1="2684.9817" x2="2674.54" y2="3275.1611">
				<stop  offset="0" style="stop-color:#FF928E"/>
				<stop  offset="1" style="stop-color:#FE7062"/>
			</linearGradient>
			<path style="fill:url(#SVGID_00000089557369645578548240000013493249305784392581_);" d="M3171.814,2934.262h-404.688
				c-2.007,0-3.634-1.627-3.634-3.634v-71.2c0-2.007,1.627-3.634,3.634-3.634h404.688c2.007,0,3.634,1.627,3.634,3.634v71.2
				C3175.448,2932.635,3173.821,2934.262,3171.814,2934.262z"/>
			
				<linearGradient id="SVGID_00000165221940327320945190000002193269340347401605_" gradientUnits="userSpaceOnUse" x1="3178.7705" y1="2718.8601" x2="2720.8738" y2="3309.0391">
				<stop  offset="0" style="stop-color:#FF928E"/>
				<stop  offset="1" style="stop-color:#FE7062"/>
			</linearGradient>
			<path style="fill:url(#SVGID_00000165221940327320945190000002193269340347401605_);" d="M3172.137,3027.442H2767.45
				c-2.007,0-3.634-1.627-3.634-3.634v-71.2c0-2.007,1.627-3.634,3.634-3.634h404.687c2.007,0,3.634,1.627,3.634,3.634v71.2
				C3175.771,3025.815,3174.144,3027.442,3172.137,3027.442z"/>
			
				<linearGradient id="SVGID_00000003803888648814665490000011391640133510741642_" gradientUnits="userSpaceOnUse" x1="3225.104" y1="2752.7388" x2="2767.2073" y2="3342.9175">
				<stop  offset="0" style="stop-color:#FF928E"/>
				<stop  offset="1" style="stop-color:#FE7062"/>
			</linearGradient>
			<path style="fill:url(#SVGID_00000003803888648814665490000011391640133510741642_);" d="M3172.461,3120.622h-404.687
				c-2.007,0-3.634-1.627-3.634-3.633v-71.2c0-2.007,1.627-3.634,3.634-3.634h404.687c2.007,0,3.634,1.627,3.634,3.634v71.2
				C3176.094,3118.996,3174.468,3120.622,3172.461,3120.622z"/>
			
				<linearGradient id="SVGID_00000107551325819807884480000008628896585439212182_" gradientUnits="userSpaceOnUse" x1="3271.4377" y1="2786.6167" x2="2813.5405" y2="3376.7959">
				<stop  offset="0" style="stop-color:#FF928E"/>
				<stop  offset="1" style="stop-color:#FE7062"/>
			</linearGradient>
			<path style="fill:url(#SVGID_00000107551325819807884480000008628896585439212182_);" d="M3172.784,3213.803h-404.688
				c-2.007,0-3.634-1.627-3.634-3.634v-71.2c0-2.007,1.627-3.634,3.634-3.634h404.688c2.007,0,3.634,1.627,3.634,3.634v71.2
				C3176.418,3212.176,3174.791,3213.803,3172.784,3213.803z"/>
		</g>
		<g>
			
				<linearGradient id="SVGID_00000039135246092227736380000008990250165455687068_" gradientUnits="userSpaceOnUse" x1="750.8037" y1="3177.4817" x2="892.7869" y2="3177.4817">
				<stop  offset="0" style="stop-color:#53D8FF"/>
				<stop  offset="1" style="stop-color:#3840F7"/>
			</linearGradient>
			<path style="fill:url(#SVGID_00000039135246092227736380000008990250165455687068_);" d="M888.778,3170.614
				c-24.323,2.103-66.538,5.518-99.818,6.982c-20.005,0.881-31.523-1.078-38.156-3.734c0.011,0.748,0.032,1.455,0.062,2.111
				c0.157,3.502,3.003,6.304,6.54,6.501c62.884,3.51,112.896,1.215,130.701,0.131c3.682-0.224,5.876-4.225,3.993-7.364
				C891.157,3173.673,890.016,3172.135,888.778,3170.614z"/>
			
				<linearGradient id="SVGID_00000072275990699924030710000001023819805822427551_" gradientUnits="userSpaceOnUse" x1="750.7956" y1="3149.6548" x2="888.7775" y2="3149.6548">
				<stop  offset="0" style="stop-color:#09005D"/>
				<stop  offset="1" style="stop-color:#1A0F91"/>
			</linearGradient>
			<path style="fill:url(#SVGID_00000072275990699924030710000001023819805822427551_);" d="M788.959,3177.597
				c33.28-1.465,75.495-4.88,99.818-6.982c-23.914-29.34-99.818-49.115-99.818-49.115h-21.438
				c-14.745,21.254-16.88,41.489-16.718,52.364C757.437,3176.518,768.954,3178.477,788.959,3177.597z"/>
			
				<linearGradient id="SVGID_00000078028079796745323520000008028584398866247065_" gradientUnits="userSpaceOnUse" x1="763.9121" y1="3110.8047" x2="803.9057" y2="3110.8047">
				<stop  offset="0" style="stop-color:#FEBBBA"/>
				<stop  offset="1" style="stop-color:#FF928E"/>
			</linearGradient>
			<path style="fill:url(#SVGID_00000078028079796745323520000008028584398866247065_);" d="M763.912,3086.501l2.006,39.699
				c0.217,4.299,3.435,7.911,7.74,8.527c4.284,0.613,10.021,0.691,16.104-1.334c3.742-1.246,6.521-4.399,7.211-8.246l6.932-38.646
				H763.912z"/>
			<g>
				
					<linearGradient id="SVGID_00000140713227231154222870000014992195684321018280_" gradientUnits="userSpaceOnUse" x1="497.3827" y1="3212.689" x2="551.793" y2="3212.689">
					<stop  offset="0" style="stop-color:#53D8FF"/>
					<stop  offset="1" style="stop-color:#3840F7"/>
				</linearGradient>
				<path style="fill:url(#SVGID_00000140713227231154222870000014992195684321018280_);" d="M515.1,3216.41
					c-10.548-1.902-15.32-8.983-17.322-16.554c-0.013,0.068-0.026,0.136-0.04,0.204c-1.552,7.986,2.046,16.264,9.238,20.2
					c8.693,4.758,18.198,5.569,25.578,5.175c7.917-0.422,15.184-4.656,19.178-11.432l0.06-0.102
					C543.846,3218.983,532.691,3219.581,515.1,3216.41z"/>
				
					<linearGradient id="SVGID_00000165933630237764096370000004444566603949956765_" gradientUnits="userSpaceOnUse" x1="497.7785" y1="3158.5442" x2="577.6421" y2="3158.5442">
					<stop  offset="0" style="stop-color:#09005D"/>
					<stop  offset="1" style="stop-color:#1A0F91"/>
				</linearGradient>
				<path style="fill:url(#SVGID_00000165933630237764096370000004444566603949956765_);" d="M564.832,3098.733h-17.679
					c-26.929-0.711-43.84,72.696-49.375,101.123c2.001,7.571,6.773,14.653,17.322,16.554c17.591,3.171,28.746,2.572,36.693-2.51
					c14.548-24.743,21.761-60.981,25.228-82.13C580.965,3107.717,564.832,3098.733,564.832,3098.733z"/>
			</g>
			
				<linearGradient id="SVGID_00000160895489680342144370000008307949503121388427_" gradientUnits="userSpaceOnUse" x1="539.2903" y1="3089.9497" x2="587.0869" y2="3089.9497">
				<stop  offset="0" style="stop-color:#FEBBBA"/>
				<stop  offset="1" style="stop-color:#FF928E"/>
			</linearGradient>
			<path style="fill:url(#SVGID_00000160895489680342144370000008307949503121388427_);" d="M549.426,3061.885l-9.817,39.045
				c-1.204,4.788,1.088,9.739,5.514,12.011c5.492,2.818,13.224,5.78,20.33,4.922c3.342-0.403,6.118-2.757,7.222-5.904l14.413-41.08
				L549.426,3061.885z"/>
			
				<linearGradient id="SVGID_00000086686734279670950280000010660097602733723278_" gradientUnits="userSpaceOnUse" x1="925.8962" y1="2574.1646" x2="517.8224" y2="3242.6287">
				<stop  offset="0" style="stop-color:#09005D"/>
				<stop  offset="1" style="stop-color:#1A0F91"/>
			</linearGradient>
			<path style="fill:url(#SVGID_00000086686734279670950280000010660097602733723278_);" d="M894.766,2547.633
				c0,0-87.73,548.386-86.285,551.4c0,0-24.23,11.013-50.645,1.404c0,0,7.933-293.151,26.523-405.552
				c0,0-149.725,262.02-197.272,392.579c0,0-24.799-2.957-45.326-16.467c0,0,161.212-471.623,204.221-534.441L894.766,2547.633z"/>
			
				<linearGradient id="SVGID_00000075163378139211384410000014849282044568697238_" gradientUnits="userSpaceOnUse" x1="816.3201" y1="1711.4154" x2="816.3201" y2="2433.0608">
				<stop  offset="0" style="stop-color:#4F52FF"/>
				<stop  offset="1" style="stop-color:#4042E2"/>
			</linearGradient>
			<path style="fill:url(#SVGID_00000075163378139211384410000014849282044568697238_);" d="M787.861,2692.029
				c-0.47,0-0.945-0.125-1.371-0.394c-1.214-0.761-1.581-2.359-0.823-3.57l32.785-52.366c0.379-0.603,0.987-1.027,1.684-1.167
				l24.127-4.856c1.411-0.278,2.77,0.63,3.053,2.029c0.281,1.404-0.628,2.77-2.029,3.053l-23.033,4.634l-32.194,51.42
				C789.568,2691.598,788.723,2692.029,787.861,2692.029z"/>
			
				<linearGradient id="SVGID_00000044900813234510787090000012045772582631029647_" gradientUnits="userSpaceOnUse" x1="1196.7103" y1="2083.1655" x2="1007.4091" y2="2329.4412">
				<stop  offset="0" style="stop-color:#FEBBBA"/>
				<stop  offset="1" style="stop-color:#FF928E"/>
			</linearGradient>
			<path style="fill:url(#SVGID_00000044900813234510787090000012045772582631029647_);" d="M1297.353,2010.645
				c0,0-59.198,13.057-95.205,29.681c-7.151,3.302-12.855,9.075-16.104,16.191c-10.769,23.589-42.987,82.742-105.469,110.97
				c8.998,11.943,23.486,36.785,29.798,78.541c37.528-27.932,69.925-74.578,85.48-151.079c0,0,11.844,6.439,26.62-0.737
				c7.806-3.792,16.82-9.169,23.586-13.398c6.741-4.214,11.763-10.765,13.713-18.415c2.575-10.102,1.058-18.986,1.058-28.516
				l30.429-9.428C1291.259,2024.454,1300.406,2021.001,1297.353,2010.645z"/>
			
				<linearGradient id="SVGID_00000039124866108380663440000008685858340108757403_" gradientUnits="userSpaceOnUse" x1="972.1444" y1="2140.8555" x2="340.1391" y2="2889.8987">
				<stop  offset="0" style="stop-color:#4F52FF"/>
				<stop  offset="1" style="stop-color:#4042E2"/>
			</linearGradient>
			<path style="fill:url(#SVGID_00000039124866108380663440000008685858340108757403_);" d="M1110.373,2246.027
				c-6.312-41.755-20.8-66.597-29.798-78.541c-38.815,17.536-89.306,23.143-153.601,0.864c-5.926-2.053-12.109-3.256-18.377-3.624
				c-34.228-2.007-147.019-5.669-240.35,25.166c-19.642,6.489-35.552,21.01-43.75,39.825
				c-25.247,57.939-66.122,189.886,47.351,256.501c8.718-21.644,18.781-39.043,27.385-51.825
				c-18.274-30.823-23.686-72.922,8.742-127.745c23.645,63.848,34.738,157.01,37.057,198.239
				c0.763,13.574-1.618,27.123-6.944,39.655l-0.581,1.367c-1.14,2.682,0.429,5.764,3.296,6.408
				c63.881,14.35,130.322,10.451,150.172,8.811c3.544-0.293,6.488-2.828,7.301-6.253c31.063-130.889,31.134-220.173,23.529-276.614
				C950.862,2284.757,1039.718,2298.614,1110.373,2246.027z"/>
			
				<linearGradient id="SVGID_00000078023289704630365480000012921239970677576336_" gradientUnits="userSpaceOnUse" x1="1207.8583" y1="1515.4373" x2="944.0838" y2="2157.4558">
				<stop  offset="0" style="stop-color:#4F52FF"/>
				<stop  offset="1" style="stop-color:#4042E2"/>
			</linearGradient>
			<path style="fill:url(#SVGID_00000078023289704630365480000012921239970677576336_);" d="M921.93,2281.78
				c-1.28,0-2.393-0.948-2.566-2.25c-7.296-55.109-22.152-79.159-22.3-79.396c-0.763-1.209-0.404-2.81,0.805-3.575
				c1.204-0.759,2.805-0.406,3.571,0.8c0.635,0.997,15.594,25.08,23.06,81.491c0.187,1.418-0.81,2.721-2.229,2.908
				C922.157,2281.773,922.043,2281.78,921.93,2281.78z"/>
			
				<linearGradient id="SVGID_00000080915825715168548680000014756901082180779445_" gradientUnits="userSpaceOnUse" x1="774.7625" y1="2242.3372" x2="795.4724" y2="2133.6106">
				<stop  offset="0" style="stop-color:#FEBBBA"/>
				<stop  offset="1" style="stop-color:#FF928E"/>
			</linearGradient>
			<path style="fill:url(#SVGID_00000080915825715168548680000014756901082180779445_);" d="M764.282,2088.479
				c0,0-6.462,68.329-12.152,88.541c-0.863,3.066,0.469,6.3,3.255,7.892c9.657,5.518,32.819,14.518,64.501-1.009
				c5.133-2.515,8.218-7.865,7.979-13.528l-2.792-66.028L764.282,2088.479z"/>
			<g>
				
					<linearGradient id="SVGID_00000090985320999513679320000018112186914575252371_" gradientUnits="userSpaceOnUse" x1="830.8003" y1="2042.8583" x2="712.638" y2="2133.2703">
					<stop  offset="0" style="stop-color:#FEBBBA"/>
					<stop  offset="1" style="stop-color:#FF928E"/>
				</linearGradient>
				<path style="fill:url(#SVGID_00000090985320999513679320000018112186914575252371_);" d="M826.467,2001.064
					c0,0,20.67,47.482,22.058,72.403c1.388,24.922,6.758,41.093-22.058,46.111c-28.816,5.019-53.091-9.336-66.242-34.161
					c0,0-20.605-38.252-15.983-53.918C748.865,2015.834,826.467,2001.064,826.467,2001.064z"/>
				
					<linearGradient id="SVGID_00000002385803021160333450000017900299398257629847_" gradientUnits="userSpaceOnUse" x1="747.6192" y1="1971.2716" x2="857.6688" y2="2112.9602">
					<stop  offset="0" style="stop-color:#09005D"/>
					<stop  offset="1" style="stop-color:#1A0F91"/>
				</linearGradient>
				<path style="fill:url(#SVGID_00000002385803021160333450000017900299398257629847_);" d="M770.072,2067.569l1.64-0.723
					c2.088-0.921,2.982-3.406,1.933-5.433c-4.063-7.851-11.985-25.842-1.752-30.039c13.188-5.409,65.429-16.062,76.701-34.599
					c10.833-17.815,1.234-40.812-13.19-47.353c-0.965-0.438-2.103-0.09-2.599,0.847l-1.202,2.275
					c-0.823,1.557-3.123,1.321-3.612-0.371c-0.47-1.624-2.63-1.939-3.526-0.505c-3.465,5.546-12.818,14.536-37.832,19.153
					c-35.549,6.561-59.053,20.947-59.638,45.512c-0.037,1.561-1.697,2.428-3.03,1.616c-2.625-1.599-6.825-2.35-12.439,2.37
					c-9.763,8.209-5.768,29.504,15.635,47.021c1.017,0.832,1.008,2.42-0.093,3.136c-3.88,2.526-9.664,8.536,5.323,16.547
					c15.502,8.287,27.078,7.607,31.535,6.871c1.109-0.183,1.824-1.257,1.582-2.354l-4.758-21.591
					c-0.269-1.222,0.661-2.379,1.912-2.379H770.072z"/>
				
					<linearGradient id="SVGID_00000057845817339714564820000016570384907125555131_" gradientUnits="userSpaceOnUse" x1="816.1437" y1="2023.7029" x2="697.9812" y2="2114.1152">
					<stop  offset="0" style="stop-color:#FEBBBA"/>
					<stop  offset="1" style="stop-color:#FF928E"/>
				</linearGradient>
				<path style="fill:url(#SVGID_00000057845817339714564820000016570384907125555131_);" d="M770.967,2072.125
					c0,0-7.885-30.331-21.484-21.826c-13.599,8.504,7.057,33.984,17.989,35.119L770.967,2072.125z"/>
			</g>
			
				<linearGradient id="SVGID_00000000190568788603405830000002226074278228948659_" gradientUnits="userSpaceOnUse" x1="1202.9974" y1="2063.7776" x2="1249.4546" y2="2063.7776">
				<stop  offset="0" style="stop-color:#FF928E"/>
				<stop  offset="1" style="stop-color:#FE7062"/>
			</linearGradient>
			<path style="fill:url(#SVGID_00000000190568788603405830000002226074278228948659_);" d="M1211.641,2087.892
				c-0.574,0-1.152-0.19-1.633-0.581c-1.111-0.901-1.278-2.534-0.374-3.645c2.238-2.755,22.105-27.045,29.758-31.366
				c2.785-1.573,4.445-3.198,4.797-4.698c0.17-0.717,0.057-1.522-0.347-2.438l-23.341,4.679l-13.226,11.347
				c-1.081,0.933-2.721,0.81-3.652-0.278c-0.933-1.086-0.808-2.721,0.278-3.655l13.738-11.79c0.337-0.288,0.741-0.485,1.177-0.574
				l25.841-5.178c1.037-0.209,2.076,0.227,2.659,1.093c1.894,2.81,2.521,5.422,1.916,7.983c-0.714,3.026-3.098,5.651-7.291,8.02
				c-5.757,3.253-22.371,22.849-28.288,30.125C1213.143,2087.567,1212.394,2087.892,1211.641,2087.892z"/>
			
				<linearGradient id="SVGID_00000029014314733153506270000007911947843579247030_" gradientUnits="userSpaceOnUse" x1="885.4221" y1="2319.5762" x2="802.7175" y2="2443.6328">
				<stop  offset="0" style="stop-color:#FEBBBA"/>
				<stop  offset="1" style="stop-color:#FF928E"/>
			</linearGradient>
			<path style="fill:url(#SVGID_00000029014314733153506270000007911947843579247030_);" d="M769.964,2519.057l91.364,1.131
				l-31.976-30.099c-7.948-7.481-20.079-8.693-29.253-2.743c-5.372,3.484-11.197,8.214-16.244,14.476
				c0,0-56.993-20.828-84.621-67.429c-8.604,12.782-18.667,30.181-27.385,51.825
				C696.616,2500.758,728.722,2512.191,769.964,2519.057z"/>
			<g>
				
					<linearGradient id="SVGID_00000129182685361115909660000003006662708444285870_" gradientUnits="userSpaceOnUse" x1="-3242.5625" y1="2367.0259" x2="-3429.4041" y2="2418.2341" gradientTransform="matrix(-0.9988 -0.0494 -0.0494 0.9988 -2381.2668 -55.0328)">
					<stop  offset="0" style="stop-color:#09005D"/>
					<stop  offset="1" style="stop-color:#1A0F91"/>
				</linearGradient>
				<path style="fill:url(#SVGID_00000129182685361115909660000003006662708444285870_);" d="M779.808,2530.84
					c0.177,0.009,0.355,0.013,0.533,0.012l231.918-0.25c5.733-0.005,10.375-4.608,10.37-10.281
					c-0.006-5.675-4.675-10.362-10.393-10.26l-231.918,0.25c-5.733,0.005-10.376,4.608-10.37,10.281
					C769.955,2526.088,774.323,2530.572,779.808,2530.84z"/>
				
					<linearGradient id="SVGID_00000171713960659756835360000002649247504160913840_" gradientUnits="userSpaceOnUse" x1="-3416.584" y1="2350.1086" x2="-3548.3772" y2="2489.4058" gradientTransform="matrix(-1 0 0 1 -2422.7358 0)">
					<stop  offset="0" style="stop-color:#09005D"/>
					<stop  offset="1" style="stop-color:#1A0F91"/>
				</linearGradient>
				<path style="fill:url(#SVGID_00000171713960659756835360000002649247504160913840_);" d="M1220.743,2322.497H1027.6
					c-14.248,0-27.217,8.135-33.294,20.886l-89.29,187.334h240.025c9.182,0,17.432-5.551,20.806-14l69.24-173.35
					C1239.089,2333.352,1231.628,2322.497,1220.743,2322.497z"/>
				
					<ellipse transform="matrix(0.313 -0.9497 0.9497 0.313 -1546.2946 2708.551)" style="fill:#7D97F4;" cx="1099.157" cy="2423.162" rx="24.498" ry="15.201"/>
			</g>
		</g>
	</g>
</g>
</svg>
