<svg xmlns="http://www.w3.org/2000/svg" width="101" height="100" viewBox="0 0 101 100" fill="none">
  <path d="M50.1241 74.4375C72.2479 104.597 93.8991 66.0195 93.8671 42.8203C93.83 15.3922 66.0292 0.0625 50.1061 0.0625C24.5483 0.0621094 0.208862 21.1844 0.208862 50.0844C0.208862 82.207 28.1093 100 50.1061 100C45.1284 99.2832 28.5397 95.7289 28.3171 57.5207C28.1667 31.6793 36.7467 21.3547 50.0702 25.8965C50.3686 26.007 64.7663 31.6867 64.7663 50.2402C64.7663 68.7152 50.1241 74.4371 50.1241 74.4371V74.4375Z" fill="url(#paint0_linear_25_448)"/>
  <path d="M50.0984 25.8752C35.4796 20.8365 17.5714 32.8854 17.5714 57.0182C17.5714 96.4232 46.7718 99.9998 50.3117 99.9998C75.8695 99.9998 100.209 78.8771 100.209 49.9775C100.209 17.8549 72.3085 0.0619558 50.3117 0.0619558C56.4042 -0.781794 83.1496 6.6557 83.1496 43.2096C83.1496 67.0478 63.1792 80.0252 50.1902 74.4807C49.8917 74.3701 35.4937 68.6904 35.4937 50.1369C35.4937 31.6615 50.0984 25.8752 50.0984 25.8752Z" fill="url(#paint1_linear_25_448)"/>
  <defs>
    <linearGradient id="paint0_linear_25_448" x1="14.9984" y1="14.7903" x2="89.6977" y2="80.3966" gradientUnits="userSpaceOnUse">
      <stop/>
      <stop offset="1" stop-color="white"/>
    </linearGradient>
    <linearGradient id="paint1_linear_25_448" x1="85.4466" y1="85.2368" x2="4.59549" y2="30.0243" gradientUnits="userSpaceOnUse">
      <stop/>
      <stop offset="1" stop-color="white"/>
    </linearGradient>
  </defs>
</svg>