<svg xmlns="http://www.w3.org/2000/svg" width="61" height="89" viewBox="0 0 61 89" fill="none">
  <path fill-rule="evenodd" clip-rule="evenodd" d="M59.9248 61.2517C58.7445 66.1159 52.7551 76.2722 49.5713 80.7421C46.3885 85.2307 46.7817 89.2715 40.8987 87.6981C35.0337 86.1246 33.3881 86.4109 27.3266 86.7684C21.3009 87.1258 22.6061 86.5894 18.833 88.2884C15.078 89.987 2.47137 67.6893 1.45194 63.5406C0.450679 59.3923 -0.0317956 59.893 2.57876 55.4044C5.18931 50.9158 5.56491 46.4817 9.0159 41.0453C12.4669 35.5913 16.4548 32.8199 16.1685 28.6535C15.0422 13.1858 14.1478 5.46097 21.0145 1.88494C27.559 -1.51261 33.0307 0.508074 35.1946 1.67016C36.1237 2.1708 38.0194 3.13678 39.432 4.8353C40.8447 6.49855 42.1142 9.01935 42.8296 12.2026C44.2957 18.5864 42.2216 16.4764 43.8843 23.7898C45.5299 31.0856 48.8735 34.6621 52.9512 40.4378C57.0279 46.213 61.284 55.7437 59.9248 61.2517Z" fill="black"/>
</svg>